<?xml version="1.0" standalone="no"?>
<!DOCTYPE svg PUBLIC "-//W3C//DTD SVG 20010904//EN"
 "http://www.w3.org/TR/2001/REC-SVG-20010904/DTD/svg10.dtd">
<svg version="1.0" xmlns="http://www.w3.org/2000/svg"
 width="250.000000pt" height="250.000000pt" viewBox="0 0 250.000000 250.000000"
 preserveAspectRatio="xMidYMid meet">

<g transform="translate(0.000000,250.000000) scale(0.100000,-0.100000)"
fill="#000000" stroke="none">
<path d="M0 2169 c1 -329 1 -331 21 -313 15 13 16 19 7 25 -16 10 17 38 45 39
10 0 20 8 23 18 14 42 48 130 64 164 14 30 17 69 18 217 l0 181 -89 0 -89 0 0
-331z m40 -229 c0 -5 -4 -10 -10 -10 -5 0 -10 5 -10 10 0 6 5 10 10 10 6 0 10
-4 10 -10z"/>
<path d="M282 2400 l3 -100 57 0 c34 0 58 4 58 11 0 5 4 7 10 4 6 -4 9 16 6
55 -1 33 -1 58 2 55 3 -3 11 4 19 15 19 26 36 26 28 -1 -5 -14 0 -28 16 -45
18 -19 19 -23 6 -18 -12 4 -17 1 -17 -11 0 -10 5 -13 12 -9 7 5 8 3 2 -7 -5
-8 -9 -18 -10 -24 0 -5 -2 -15 -2 -21 -1 -7 -11 -14 -22 -17 -18 -5 -20 -13
-20 -89 1 -114 12 -157 51 -190 20 -17 30 -32 26 -42 -8 -20 -33 -21 -44 -2
-4 7 -23 17 -42 21 -33 7 -34 7 -17 -10 14 -14 15 -20 4 -26 -7 -5 -8 -9 -3
-9 6 0 11 -9 11 -20 0 -15 -6 -20 -26 -18 -25 3 -29 -9 -15 -49 8 -25 32 -14
27 12 -3 18 0 25 12 25 32 0 30 -31 -4 -61 -32 -28 -36 -29 -113 -25 -84 5
-107 -2 -107 -34 0 -22 -19 -30 -71 -30 -46 0 -44 -15 4 -26 28 -6 29 -8 12
-15 -34 -13 -65 -10 -65 6 0 8 -9 15 -19 15 -11 0 -26 3 -35 6 -15 6 -16 -74
-16 -860 l0 -866 1250 0 1250 0 -1 548 c0 301 -2 543 -4 537 -2 -5 -11 -82
-21 -170 -9 -88 -21 -165 -25 -171 -13 -16 -69 -5 -69 15 0 15 15 188 44 511
8 85 22 177 31 203 10 26 15 50 12 53 -6 6 -57 -74 -90 -141 -38 -76 -66 -166
-94 -304 -14 -69 -27 -128 -28 -129 -7 -7 -37 61 -50 110 -11 45 -10 58 16
156 15 59 38 130 50 157 35 80 109 185 171 246 l58 57 0 291 c0 220 -3 291
-12 291 -9 0 -9 3 0 12 8 8 12 49 12 120 l0 108 -550 0 c-460 0 -549 -2 -544
-14 3 -7 16 -18 30 -25 14 -6 30 -25 36 -41 5 -17 13 -30 17 -30 5 0 8 -103 8
-230 0 -126 -3 -228 -6 -226 -3 2 -6 -31 -6 -75 0 -61 -4 -82 -17 -96 -16 -16
-19 -16 -36 0 -13 12 -37 17 -83 17 -35 0 -69 4 -75 8 -15 10 -25 42 -14 42 6
0 10 7 10 15 0 8 -5 15 -11 15 -6 0 -8 7 -5 17 4 10 4 15 1 11 -4 -3 -20 -2
-36 2 -25 7 -29 6 -29 -11 0 -25 -17 -25 -25 1 -3 11 -10 20 -14 20 -18 0 -31
56 -31 130 0 43 -4 81 -9 84 -5 3 -47 7 -95 8 -48 2 -87 7 -87 13 -1 6 0 90 1
188 l2 177 -41 0 -41 0 0 -155 c0 -147 -1 -155 -19 -155 -11 0 -22 4 -25 9 -3
5 -15 7 -26 4 -21 -6 -27 6 -11 22 5 6 14 36 20 68 6 36 18 65 30 75 19 16 19
19 3 66 -20 59 -43 77 -73 58 -15 -10 -24 -10 -34 -2 -20 17 -55 -34 -55 -80
0 -20 3 -39 6 -43 3 -3 6 -54 7 -114 1 -104 1 -108 -21 -111 -26 -4 -29 15 -4
34 15 12 12 13 -24 14 l-41 0 -7 92 c-3 50 -6 120 -6 155 l0 63 -34 0 c-24 0
-36 -5 -39 -17 -4 -17 -5 -17 -6 0 -1 15 -13 17 -106 17 l-106 0 3 -100z m214
25 c-3 -8 -10 -15 -15 -15 -11 0 -9 19 4 40 11 17 20 -3 11 -25z m324 -319 c0
-34 -10 -37 -41 -15 -16 11 -29 17 -30 12 -1 -4 -3 -26 -5 -49 -2 -22 -10 -53
-18 -69 -8 -16 -12 -33 -9 -38 3 -5 -4 -6 -16 -2 -18 5 -22 2 -27 -25 -5 -23
-11 -29 -24 -25 -9 3 -23 -1 -30 -10 -17 -20 -46 -19 -54 2 -6 14 -9 15 -15 4
-10 -16 -31 -6 -31 15 0 11 6 13 21 9 19 -6 21 -4 15 16 -18 57 -14 64 38 67
40 3 48 1 43 -12 -8 -20 13 -33 24 -15 5 8 9 24 9 37 0 17 -6 22 -28 22 -24 0
-27 4 -27 33 0 17 7 36 15 41 23 15 90 24 96 14 3 -5 13 -7 21 -4 9 4 23 1 31
-6 12 -10 14 -10 8 0 -10 17 1 32 19 25 8 -3 15 -15 15 -27z m1527 -8 c-3 -7
-5 -2 -5 12 0 14 2 19 5 13 2 -7 2 -19 0 -25z m-1754 -30 c-7 -40 -10 -45 -24
-31 -14 14 -1 63 17 63 10 0 12 -9 7 -32z m450 -5 c-7 -2 -21 -2 -30 0 -10 3
-4 5 12 5 17 0 24 -2 18 -5z m-243 -24 c0 -5 -4 -9 -10 -9 -5 0 -10 7 -10 16
0 8 5 12 10 9 6 -3 10 -10 10 -16z m280 -45 c0 -13 -7 -15 -31 -10 -17 3 -43
6 -58 7 -23 0 -24 1 -6 8 11 4 37 9 57 9 29 2 38 -2 38 -14z m-787 -241 c-13
-2 -35 -2 -50 0 -16 2 -5 4 22 4 28 0 40 -2 28 -4z m287 3 c0 -3 -4 -8 -10
-11 -5 -3 -10 -1 -10 4 0 6 5 11 10 11 6 0 10 -2 10 -4z m183 -163 c-7 -2 -19
-2 -25 0 -7 3 -2 5 12 5 14 0 19 -2 13 -5z m115 -20 c11 -10 23 -29 27 -43 7
-23 5 -23 -31 11 -22 20 -46 39 -54 42 -9 3 -4 6 11 6 15 1 36 -7 47 -16z
m246 -159 c9 -8 16 -32 16 -53 0 -20 5 -42 12 -49 17 -17 0 -15 -67 8 -71 24
-85 36 -85 67 0 40 92 60 124 27z m-494 -199 c0 -8 9 -19 20 -25 11 -6 20 -19
20 -29 0 -10 9 -29 19 -43 11 -13 21 -33 23 -43 5 -32 -42 -21 -74 17 -34 39
-56 100 -39 106 6 2 11 13 11 23 0 11 5 17 10 14 6 -3 10 -13 10 -20z m797
-374 c69 -43 48 -91 -40 -92 -74 -1 -99 13 -95 54 5 54 75 74 135 38z m640
-57 c79 -21 143 -40 143 -43 0 -4 -104 -33 -232 -66 -158 -40 -238 -65 -252
-79 -13 -13 -32 -19 -63 -18 -28 0 -46 -5 -49 -13 -3 -7 -24 -16 -47 -19 -23
-4 -73 -18 -110 -31 -76 -28 -107 -31 -107 -12 0 7 -9 18 -20 25 -11 7 -20 20
-20 30 0 10 -7 28 -16 40 -18 26 -13 27 27 7 28 -15 40 -13 219 32 105 26 190
50 190 54 0 4 -36 20 -80 36 -82 29 -104 45 -50 37 17 -3 30 -1 30 5 0 6 5 11
11 11 5 0 7 -6 3 -12 -6 -10 -4 -10 8 0 8 7 24 9 33 5 11 -4 16 -2 12 4 -3 5
0 10 8 10 8 0 15 -4 15 -8 0 -4 14 -7 30 -7 17 1 30 4 30 8 0 7 75 21 113 21
9 0 15 4 12 10 -10 15 12 11 162 -27z"/>
<path d="M630 1940 c0 -5 5 -10 11 -10 5 0 7 5 4 10 -3 6 -8 10 -11 10 -2 0
-4 -4 -4 -10z"/>
<path d="M1306 2215 c-3 -8 -1 -15 4 -15 6 0 10 7 10 15 0 8 -2 15 -4 15 -2 0
-6 -7 -10 -15z"/>
<path d="M1301 2144 c0 -11 3 -14 6 -6 3 7 2 16 -1 19 -3 4 -6 -2 -5 -13z"/>
<path d="M343 1966 l-31 -11 25 -12 c27 -13 49 -8 57 12 3 10 0 12 -11 8 -11
-4 -14 -2 -9 5 4 7 6 11 4 11 -2 -1 -17 -7 -35 -13z"/>
<path d="M204 1882 c1 -22 5 -28 19 -24 30 8 16 52 -17 52 -2 0 -3 -13 -2 -28z"/>
<path d="M0 1780 c0 -5 13 -10 30 -10 17 0 30 5 30 10 0 6 -13 10 -30 10 -17
0 -30 -4 -30 -10z"/>
</g>
</svg>
